<svg width="286" height="330" viewBox="0 0 286 330" fill="none" xmlns="http://www.w3.org/2000/svg">
<g opacity="0.2">
<path d="M238.157 263.605C238.754 266.404 237.057 269.274 234.529 270.18L232.226 271.057C231.619 266.417 229.939 262.378 229.939 262.378C229.939 262.378 233.329 261.014 237.531 260.579L238.157 263.605Z" fill="#000010"/>
<path d="M204.821 94.156L237.531 260.579C233.329 261.014 229.94 262.378 229.94 262.378C229.94 262.378 225.947 257.375 223.333 255.876L223.185 254.744L194.177 104.297L194.014 103.052C195.892 99.8134 197.007 94.2575 197.007 94.2575C197.007 94.2575 200.727 93.6557 204.821 94.156Z" fill="#8753A4"/>
<path d="M229.939 262.378C229.939 262.378 231.619 266.417 232.226 271.057L231.788 271.23L216.517 276.796L112.032 314.87C112.882 309.924 110.631 305.039 110.631 305.039C110.631 305.039 115.716 298.158 117.942 291.421L223.446 255.861C225.947 257.375 229.939 262.378 229.939 262.378Z" fill="#8753A4"/>
<path d="M231.788 271.229L231.942 273.281C232.178 275.092 228.622 276.939 224.095 277.531C220.926 277.946 218.008 277.637 216.517 276.796L231.788 271.229Z" fill="#020711"/>
<path d="M203.987 89.5456L204.821 94.1559C200.727 93.6557 197.007 94.2575 197.007 94.2575C197.007 94.2575 196.813 90.139 194.893 86.0163L194.878 85.9031L198.243 85.2325C200.846 84.892 203.406 86.8592 203.987 89.5456Z" fill="#000010"/>
<path d="M202.36 79.7442C202.813 82.3323 200.944 84.7638 198.243 85.2324L194.878 85.9029L193.972 86.0214C193.818 81.3222 192.931 77.1794 192.931 77.1794C192.931 77.1794 197.27 76.0361 201.63 75.9261L202.36 79.7442Z" fill="#000010"/>
<path d="M191.329 22.7135L201.63 75.9262C197.27 76.0362 192.931 77.1795 192.931 77.1795L190.021 61.1L183.018 22.5347C183.018 22.5347 187.146 21.5342 191.329 22.7135Z" fill="#8753A4"/>
<path d="M223.185 254.744L223.446 255.86L117.942 291.42L117.607 289.737C117.607 289.737 119.624 288.438 123.27 287.27L220.833 254.361L223.185 254.744Z" fill="#FFFEFF"/>
<path d="M190.383 18.1181L191.329 22.7137C187.146 21.5344 183.018 22.5349 183.018 22.5349C183.018 22.5349 182.711 18.4312 180.904 14.2937L184.427 13.9478C187.271 13.6908 189.929 15.5301 190.383 18.1181Z" fill="#000010"/>
<path d="M206.444 179.583L220.833 254.361L123.27 287.27L106.756 202.41L112.242 201.232C118.067 234.311 141.243 259.25 165.752 257.424C192.102 255.588 209.828 223.916 204.519 186.856C204.147 184.603 203.738 182.354 203.291 180.111L206.444 179.583Z" fill="#182333"/>
<path d="M194.892 86.0161C196.813 90.1388 197.007 94.2573 197.007 94.2573C197.007 94.2573 195.892 99.8131 194.014 103.052L85.3153 124.756C81.4856 120.998 73.2126 117.592 73.2126 117.592C73.9889 114.727 72.2691 108.622 70.4627 107.131L193.972 86.0213L194.878 85.9029L194.892 86.0161Z" fill="#E679BB"/>
<path d="M192.16 105.596L206.445 179.582L203.291 180.11C195.936 146.771 171.54 123.949 147.342 128.151C122.45 132.329 106.972 163.591 111.715 198.078C111.853 199.134 112.029 200.185 112.242 201.232L106.756 202.41L91.9342 126.077L192.16 105.596Z" fill="#182333"/>
<path d="M192.931 77.1796C192.931 77.1796 193.818 81.3224 193.972 86.0216L70.4626 107.132C71.2971 102.073 69.1596 97.1728 69.1596 97.1728L192.931 77.1796Z" fill="#0B0E19"/>
<path fill-rule="evenodd" clip-rule="evenodd" d="M190.021 61.0998L192.931 77.1793L69.1597 97.1725L65.2939 77.3044L189.908 61.1146L190.021 61.0998ZM166.112 73.6669C167.568 73.3612 168.424 71.9831 168.118 70.5267C167.827 69.1835 166.336 68.3427 164.879 68.6483L162.149 68.8905C160.579 69.211 159.625 70.7171 159.803 72.0751C159.803 72.0751 159.798 72.0374 159.788 71.962C159.369 70.5204 157.991 69.6647 156.549 70.0836L153.819 70.3258C152.249 70.6463 151.28 72.0392 151.345 73.412C151.335 73.3366 151.325 73.2611 151.315 73.1857C151.009 71.7293 149.518 70.8885 147.949 71.209L145.104 71.466C143.422 71.8013 142.384 73.5485 142.719 75.2312C143.153 76.786 144.787 77.8383 146.583 77.4883L149.21 76.4539C150.539 76.0498 151.537 74.8832 151.359 73.5252C151.374 73.6384 151.389 73.7515 151.404 73.8647C151.838 75.4195 153.472 76.4718 155.14 76.0234L157.668 75.117C158.997 74.7129 159.882 73.5611 159.818 72.1883C159.827 72.2638 159.842 72.3769 159.862 72.5278C160.182 74.0974 161.802 75.0366 163.484 74.7013L166.112 73.6669ZM140.428 77.9483C141.997 77.6279 142.951 76.1218 142.645 74.6654C142.325 73.0958 140.721 72.2698 139.151 72.5903L136.307 72.8473C134.526 73.3105 133.36 74.9594 133.824 76.7405C134.159 78.4233 135.906 79.4608 137.687 78.9975L140.428 77.9483ZM131.305 79.4873C132.875 79.1668 133.814 77.5475 133.508 76.0911C133.188 74.5216 131.569 73.5824 130.014 74.016L127.057 74.2878C125.261 74.6379 124.194 76.1588 124.416 77.8564C124.396 77.7055 124.381 77.5923 124.371 77.5169C123.938 75.9621 122.432 75.0081 120.764 75.4566L117.806 75.7284C115.897 76.0933 114.747 77.8553 115.21 79.6364C115.56 81.4323 117.435 82.5683 119.216 82.105L122.07 81.041C123.625 80.6073 124.593 79.2144 124.416 77.8564C124.431 77.9695 124.445 78.0827 124.46 78.1959C124.909 79.8638 126.671 81.0145 128.452 80.5513L131.305 79.4873ZM95.3831 88.2162L93.3164 75.94L86.8806 76.8972L88.849 89.3014L95.3831 88.2162ZM85.7934 89.7012L83.8251 77.297L77.0497 78.2986L79.146 90.8011L85.7934 89.7012Z" fill="#8753A4"/>
<path d="M183.018 22.5348L190.021 61.1001L189.908 61.1149L65.2938 77.3048L57.2513 35.1921L183.018 22.5348Z" fill="#182333"/>
<path d="M194.014 103.052L194.177 104.297C193.232 104.996 192.16 105.597 192.16 105.597L91.9342 126.077C87.3387 127.024 85.9066 126.636 85.6655 126.552L85.3154 124.756L194.014 103.052Z" fill="#FFFEFF"/>
<path d="M180.904 14.2935C182.711 18.4311 183.018 22.5348 183.018 22.5348L57.2513 35.1921C57.8997 32.2296 56.3967 26.9011 54.5902 25.4109L180.904 14.2935Z" fill="#E679BB"/>
<path fill-rule="evenodd" clip-rule="evenodd" d="M204.519 186.856C209.828 223.916 192.102 255.588 165.753 257.424C141.243 259.25 118.067 234.311 112.242 201.232C112.029 200.186 111.853 199.134 111.715 198.078C106.972 163.591 122.45 132.329 147.342 128.151C171.54 123.949 195.936 146.771 203.291 180.11C203.738 182.354 204.147 184.603 204.519 186.856ZM165.047 252.912C188.523 251.107 204.139 221.783 199.185 187.439C194.373 153.306 171.015 128.737 147.934 132.678C125.743 136.387 111.81 165.375 116.355 197.471C120.914 229.68 142.477 254.599 165.047 252.912Z" fill="#E679BB"/>
<path fill-rule="evenodd" clip-rule="evenodd" d="M199.185 187.439C204.139 221.783 188.523 251.107 165.047 252.912C142.477 254.599 120.914 229.68 116.355 197.471C111.81 165.375 125.743 136.387 147.934 132.678C171.015 128.737 194.373 153.306 199.185 187.439ZM152.595 209.65C159.626 208.845 164.441 201.654 163.375 193.506C162.21 185.486 155.467 179.692 148.45 180.61C141.547 181.513 136.846 188.689 137.995 196.596C139.032 204.518 145.549 210.342 152.595 209.65Z" fill="#0D101B"/>
<path d="M168.118 70.5269C168.537 71.9685 167.568 73.3614 166.112 73.6671C164.67 74.0859 163.164 73.1319 162.873 71.7887C162.582 70.4455 163.536 68.9394 164.879 68.6485C166.449 68.328 167.827 69.1837 168.118 70.5269Z" fill="#C78450"/>
<path d="M166.112 73.6671L163.598 74.6867C161.915 75.0219 160.296 74.0827 159.862 72.528C159.842 72.3771 159.827 72.2639 159.818 72.1885C159.818 72.1885 159.813 72.1508 159.803 72.0753C159.738 70.7025 160.692 69.1964 162.262 68.8759L164.879 68.6485C163.536 68.9394 162.582 70.4455 162.873 71.7887C163.164 73.1319 164.67 74.0859 166.112 73.6671Z" fill="#1A0B05"/>
<path d="M159.788 71.9621C159.798 72.0375 159.803 72.0752 159.803 72.0752C159.813 72.1507 159.818 72.1884 159.818 72.1884C159.882 73.5612 159.11 74.6982 157.782 75.1022C156.212 75.4227 154.834 74.5671 154.528 73.1107C154.237 71.7675 155.093 70.3893 156.549 70.0837C157.991 69.6648 159.482 70.5057 159.788 71.9621Z" fill="#C78450"/>
<path d="M157.782 75.1022L155.14 76.0234C153.472 76.4719 151.838 75.4195 151.517 73.85C151.502 73.7368 151.374 73.6384 151.359 73.5253C151.359 73.5253 151.355 73.4875 151.345 73.4121C151.28 72.0393 152.362 70.6315 153.818 70.3259L156.549 70.0836C155.093 70.3893 154.237 71.7674 154.528 73.1107C154.834 74.5671 156.212 75.4227 157.782 75.1022Z" fill="#1A0B05"/>
<path d="M151.315 73.1859C151.325 73.2613 151.335 73.3368 151.345 73.4122C151.355 73.4877 151.359 73.5254 151.359 73.5254C151.537 74.8834 150.652 76.0352 149.21 76.454C147.754 76.7597 146.263 75.9189 145.844 74.4773C145.538 73.0209 146.492 71.5148 148.062 71.1943C149.518 70.8887 151.009 71.7295 151.315 73.1859Z" fill="#C78450"/>
<path d="M149.21 76.454L146.583 77.4884C144.9 77.8237 143.153 76.7861 142.833 75.2165C142.384 73.5486 143.535 71.7866 145.218 71.4513L148.062 71.1943C146.492 71.5147 145.538 73.0208 145.844 74.4772C146.263 75.9188 147.754 76.7597 149.21 76.454Z" fill="#1A0B05"/>
<path d="M163.375 193.506C164.441 201.654 159.626 208.845 152.595 209.65C145.549 210.341 139.032 204.518 137.995 196.596C136.846 188.689 141.547 181.513 148.45 180.61C155.467 179.692 162.21 185.485 163.375 193.506Z" fill="#536882"/>
<path d="M142.532 74.6804C142.966 76.2352 141.997 77.6281 140.442 78.0617C138.873 78.3822 137.268 77.5562 136.948 75.9866C136.642 74.5303 137.596 73.0242 139.166 72.7037C140.721 72.27 142.227 73.224 142.532 74.6804Z" fill="#C78450"/>
<path d="M140.442 78.0616L137.702 79.1109C135.906 79.4609 134.159 78.4234 133.71 76.7555C133.375 75.0727 134.413 73.3255 136.322 72.9606L139.166 72.7036C137.596 73.024 136.642 74.5301 136.948 75.9865C137.268 77.5561 138.873 78.3821 140.442 78.0616Z" fill="#1A0B05"/>
<path d="M133.395 76.1061C133.829 77.6608 132.762 79.1818 131.192 79.5022C129.637 79.9359 128.018 78.9967 127.698 77.4271C127.392 75.9707 128.346 74.4646 129.901 74.031C131.47 73.7105 133.075 74.5365 133.395 76.1061Z" fill="#C78450"/>
<path d="M131.192 79.5023L128.452 80.5515C126.558 81.0295 124.81 79.992 124.347 78.2109C124.332 78.0977 124.317 77.9845 124.303 77.8714C124.095 76.287 125.276 74.7513 126.944 74.3028L129.901 74.031C128.346 74.4646 127.392 75.9707 127.698 77.4271C128.018 78.9967 129.637 79.9359 131.192 79.5023Z" fill="#1A0B05"/>
<path d="M124.273 77.6451C124.283 77.7205 124.293 77.796 124.302 77.8714C124.495 79.3426 123.526 80.7355 121.957 81.056C120.402 81.4896 118.783 80.5505 118.462 78.9809C118.028 77.4262 119.081 75.7921 120.65 75.4716C122.333 75.1363 123.952 76.0755 124.273 77.6451Z" fill="#C78450"/>
<path d="M121.957 81.056L119.231 82.2184C117.322 82.5833 115.575 81.5457 115.112 79.7646C114.648 77.9835 115.912 76.2067 117.693 75.7434L120.65 75.4716C119.081 75.7921 118.029 77.4262 118.462 78.9809C118.783 80.5505 120.402 81.4897 121.957 81.056Z" fill="#1A0B05"/>
<path d="M106.756 202.41L123.27 287.27C119.624 288.438 117.607 289.738 117.607 289.738L85.6655 126.552C85.9066 126.636 87.3387 127.024 91.9342 126.077L106.756 202.41Z" fill="#0B0E19"/>
<path d="M93.218 76.0681L95.1567 88.2459L88.7357 89.3163L86.7822 77.0253L93.218 76.0681Z" fill="#0F161D"/>
<path d="M85.6654 126.552L117.607 289.738L117.942 291.42C115.716 298.158 110.631 305.039 110.631 305.039C110.631 305.039 104.785 305.228 100.633 306.922L64.0956 120.051C68.671 118.071 73.2126 117.592 73.2126 117.592C73.2126 117.592 81.4856 120.998 85.3153 124.756L85.6654 126.552Z" fill="#E679BB"/>
<path d="M83.6135 77.4399L85.5818 89.8441L78.9344 90.9441L76.8381 78.4415L83.6135 77.4399Z" fill="#B70018"/>
<path d="M110.631 305.039C110.631 305.039 112.882 309.924 112.032 314.87L108.952 315.963C107.639 316.48 106.492 316.515 105.429 316.309C103.53 315.867 102.092 314.559 101.713 312.536L100.707 307.488L100.633 306.922C104.785 305.228 110.631 305.039 110.631 305.039Z" fill="#000010"/>
<path d="M105.429 316.309L105.494 317.682C105.731 319.493 102.189 321.452 97.6619 322.045C93.1351 322.637 89.208 321.654 88.9711 319.844L85.9642 306.54L91.8606 310.257L100.707 307.488L101.713 312.536C102.092 314.559 103.53 315.867 105.429 316.309Z" fill="#020711"/>
<path d="M59.26 98.9283L60.1918 103.411C60.69 106.338 64.0417 108.202 67.5351 107.63C64.2977 108.399 62.3452 111.071 62.8582 114.112L64.0957 120.051L100.633 306.922L100.707 307.488L91.8607 310.257L36.1395 29.5515L47.1169 28.1152C46.4432 29.1242 46.1386 30.3151 46.4146 31.5452L47.5686 37.725L59.26 98.9283Z" fill="#000010"/>
<path d="M70.4627 107.131C72.2692 108.622 73.989 114.728 73.2127 117.592C73.2127 117.592 68.6711 118.071 64.0957 120.051L62.8582 114.112C62.3452 111.071 64.2977 108.399 67.5351 107.63C67.7516 107.525 67.9353 107.462 68.0862 107.442L70.4627 107.131Z" fill="#000010"/>
<path d="M69.1596 97.1725C69.1596 97.1725 71.2972 102.073 70.4627 107.131L68.0861 107.442C67.9352 107.462 67.7516 107.525 67.5351 107.63C64.0417 108.202 60.69 106.338 60.1918 103.411L59.26 98.9283C63.4271 97.3471 69.1596 97.1725 69.1596 97.1725Z" fill="#000010"/>
<path d="M65.2939 77.3047L69.1596 97.1727C69.1596 97.1727 63.4272 97.3473 59.26 98.9285L47.5685 37.7252C52.1439 35.7453 57.2513 35.1921 57.2513 35.1921L65.2939 77.3047Z" fill="#E679BB"/>
<path d="M54.5903 25.411C56.3968 26.9013 57.8997 32.2297 57.2514 35.1922C57.2514 35.1922 52.144 35.7454 47.5686 37.7253L46.4146 31.5454C46.1386 30.3154 46.4432 29.1245 47.1169 28.1155C48.1005 26.8357 49.6944 25.8214 51.7463 25.668L54.5903 25.411Z" fill="#000010"/>
<path d="M50.0886 283.954L68.5309 295.584C67.193 296.795 64.5658 297.829 61.5102 298.229C56.9835 298.821 53.0564 297.839 52.8195 296.028L50.0886 283.954Z" fill="#020711"/>
<path d="M5.39256 71.675C7.49662 83.0638 9.64333 94.4854 11.8327 105.94C17.0575 103.645 22.2873 101.387 27.5219 99.1676C24.4716 84.0657 21.4262 69.0016 18.3858 53.9751C14.0121 59.8423 9.68098 65.7423 5.39256 71.675ZM18.3858 53.9751C21.4262 69.0016 24.4716 84.0657 27.5219 99.1676C34.4228 96.1928 41.2859 93.2229 48.1113 90.2579C44.1634 70.0553 40.1728 49.8199 36.1395 29.5517C30.2216 37.6928 24.3037 45.834 18.3858 53.9751ZM11.8327 105.94C15.0445 122.862 18.2612 139.822 21.4829 156.82C27.4304 157.117 33.4108 157.37 39.4239 157.581C35.4992 138.143 31.5319 118.671 27.5219 99.1676C22.2873 101.387 17.0575 103.645 11.8327 105.94ZM27.5219 99.1676C31.5319 118.671 35.4992 138.143 39.4239 157.581C46.8345 157.916 54.2878 158.283 61.7838 158.684C57.264 135.87 52.7065 113.062 48.1113 90.2579C41.2859 93.2229 34.4228 96.1928 27.5219 99.1676ZM21.4829 156.82C25.4936 178.089 29.5092 199.396 33.5298 220.74C40.1669 222.787 46.8467 224.868 53.5692 226.981C48.859 203.885 44.1439 180.752 39.4239 157.581C33.4108 157.37 27.4304 157.117 21.4829 156.82ZM39.4239 157.581C44.1439 180.752 48.859 203.885 53.5692 226.981C61.3316 229.418 69.0564 231.861 76.7434 234.308C71.7569 209.1 66.7703 183.892 61.7838 158.684C54.2878 158.283 46.8345 157.916 39.4239 157.581ZM33.5298 220.74C37.2873 240.66 41.0498 260.619 44.8172 280.615C46.5694 281.69 48.3265 282.803 50.0886 283.954C55.857 287.573 61.5878 291.197 67.2808 294.826C62.7053 272.173 58.1348 249.558 53.5692 226.981C46.8467 224.868 40.1669 222.787 33.5298 220.74ZM53.5692 226.981C58.1348 249.558 62.7053 272.173 67.2808 294.826C67.6975 295.079 68.1142 295.331 68.5309 295.584C74.2994 299.203 80.1105 302.855 85.9643 306.54C87.9724 307.812 89.9379 309.051 91.8607 310.257C86.8643 284.974 81.8252 259.657 76.7434 234.308C69.0564 231.861 61.3316 229.418 53.5692 226.981Z" fill="url(#paint0_linear_23_23)"/>
<path d="M154.161 127.489C161.139 127.152 168.087 129.235 174.294 132.682C180.515 136.242 185.866 141.067 190.37 146.463C199.311 157.61 204.542 171.199 206.944 185.158C209.006 199.161 208.269 213.761 203.093 226.985C200.399 233.668 196.839 239.889 191.999 245.127C187.017 250.153 180.995 254.279 174.196 255.974L174.038 255.649C180.537 253.418 186.318 249.208 190.705 244.03C195.205 238.837 198.539 232.645 200.809 226.247C205.449 213.324 206.246 199.177 204.016 185.656C201.9 172.12 196.826 158.856 188.496 147.975C184.331 142.534 179.32 137.665 173.438 134.06C167.655 130.328 161.016 127.973 154.093 127.843L154.161 127.489Z" fill="#07101C"/>
<path d="M52.8195 296.028C51.7583 292.023 50.8103 288.003 49.9754 283.968L50.2018 283.939C50.8861 284.77 51.3589 285.744 51.8316 286.718C52.1912 287.707 52.4377 288.711 52.7973 289.7C52.9305 290.718 53.177 291.722 53.1971 292.755C53.2172 293.789 53.2373 294.822 52.9327 296.013L52.8195 296.028Z" fill="#58414E"/>
<path d="M88.9713 319.844C87.841 315.311 86.7861 310.768 85.8067 306.215L85.9199 306.2C86.747 307.243 87.2346 308.33 87.7222 309.417C88.0966 310.519 88.3578 311.636 88.7322 312.738C88.8803 313.87 89.1415 314.987 89.3044 316.232C89.3393 317.378 89.3891 318.638 89.0845 319.829L88.9713 319.844Z" fill="#58414E"/>
<path d="M161.431 205.041L193.755 230.394C193.755 230.394 189.233 244.222 174.632 250.507L155.538 209.265C155.538 209.265 157.81 208.162 161.431 205.041Z" fill="#292B35"/>
<path d="M147.092 180.788L153.41 132.307C153.41 132.307 143.805 131.031 132.476 140.341L141.253 184.544C141.253 184.544 143.643 181.699 147.092 180.788Z" fill="#292B35"/>
<path d="M152.477 208.745C149.082 209.189 145.676 207.793 143.185 205.471C140.709 203.263 139.02 200.031 138.576 196.636C138.033 193.368 138.721 189.825 140.402 186.843C142.212 183.958 145.159 181.846 148.554 181.402L148.598 181.742C145.45 183.19 143.566 185.508 142.406 188.077C141.359 190.631 141.05 193.549 141.518 196.251C141.874 198.967 143.021 201.579 144.803 203.763C146.586 205.947 149.002 207.703 152.447 208.518L152.477 208.745Z" fill="#9CAEBA"/>
<path d="M150.856 180.525L171.58 138.332C171.58 138.332 195.776 153.468 199.718 191.513L163.126 199.524C163.126 199.524 166.392 184.018 150.856 180.525Z" fill="#292B35"/>
<path d="M70.4331 106.905C75.5352 105.432 80.5686 104.313 85.7003 103.066L101.027 99.6794C111.222 97.5397 121.475 95.8528 131.813 93.9246C142.082 92.3508 152.321 90.5506 162.732 89.1884L178.251 87.2729C183.487 86.8181 188.693 86.137 193.958 85.9085L193.987 86.1348L132.311 96.8522L70.4775 107.245L70.4331 106.905Z" fill="#242A3F"/>
<path d="M194.893 86.0163C189.79 87.4896 184.644 88.6235 179.625 89.8556L164.186 93.2571C153.878 95.4116 143.511 97.1134 133.188 99.1547C122.678 100.645 112.326 102.46 101.914 103.822L86.2821 105.752C81.0615 106.32 75.7278 106.903 70.4776 107.245L70.4331 106.905L132.69 96.2271L194.848 85.6768L194.893 86.0163Z" fill="#ACECC8"/>
<path d="M59.5012 99.012C60.7958 100.109 61.5394 101.393 62.1697 102.692C62.2829 102.677 62.6277 103.552 62.5981 103.326C62.726 103.425 62.8688 103.636 62.982 103.621C63.2478 103.893 63.5464 104.123 63.8778 104.31C64.5177 104.802 65.2559 105.165 66.3337 105.485C66.8308 105.765 67.4263 105.917 68.1349 106.055C68.9715 106.291 69.6801 106.428 70.4332 106.905L70.4776 107.245C69.1196 107.422 67.7912 107.826 66.3052 107.906C64.9323 107.97 63.3871 107.597 62.1369 106.84C60.9852 105.954 60.1136 104.572 59.936 103.214L59.1617 99.0564L59.5012 99.012Z" fill="#2F2F3F"/>
<path d="M47.6817 37.7105C51.6173 47.5551 54.0817 57.5922 56.1082 67.8018C57.0156 72.9779 57.9083 78.0409 58.4763 83.2615L59.2717 91.0998C59.2727 93.7471 59.5001 96.3648 59.5012 99.0121L59.1617 99.0565L53.0822 68.4279L47.3422 37.7549L47.6817 37.7105Z" fill="#859BAA"/>
<path d="M180.919 14.4067C175.644 15.4422 170.453 16.2365 165.262 17.0308L149.547 19.2022C139.007 20.4661 128.536 21.3758 117.982 22.5265C107.482 23.2098 96.9124 24.2474 86.3824 24.7043L70.5873 25.3897C65.2927 25.3918 59.9146 25.6351 54.6051 25.5241L54.5607 25.1846L117.71 19.5693L180.889 14.1804L180.919 14.4067Z" fill="#859BAA"/>
<path d="M191.216 22.7284C190.487 21.5575 189.97 20.2439 189.453 18.9303C189.138 18.2809 189.078 17.8282 188.793 17.4052C188.583 16.9723 188.264 16.5919 187.838 16.264C187.055 15.5606 185.977 15.2412 184.915 15.035C183.738 14.8436 182.238 14.8097 180.919 14.4068L180.889 14.1804L184.88 13.8885C186.252 13.824 187.699 14.3253 188.723 15.1122C189.875 15.9974 190.52 17.4094 190.585 18.7822L191.329 22.7136L191.216 22.7284Z" fill="#2F2F3F"/>
<path d="M201.517 75.9411L199.625 69.3974L197.959 62.8241C196.929 58.4697 196.11 53.9726 195.08 49.6182C194.374 45.1063 193.457 40.7371 192.865 36.2104L191.878 29.5482L191.216 22.7284L191.329 22.7136C194.876 40.4364 198.309 58.174 201.63 75.9263L201.517 75.9411Z" fill="#76828C"/>
<path d="M193.958 85.9085C195.128 85.1797 196.457 84.7757 197.657 84.2733C197.884 84.2437 197.997 84.2289 198.095 84.1009C198.208 84.0861 198.435 84.0565 198.548 84.0417C198.759 83.8989 198.986 83.8693 199.197 83.7265C199.62 83.441 199.958 83.0898 200.21 82.6731C200.929 82.0036 201.263 81.039 201.243 80.0057C201.306 78.7312 201.242 77.3584 201.517 75.9411L201.63 75.9263L202.488 79.8428C202.665 81.2008 202.277 82.6329 201.377 83.6715C200.477 84.7101 199.178 85.3405 197.933 85.5034L193.987 86.1348L193.958 85.9085Z" fill="#2F2F3F"/>
<path d="M69.1598 97.1727C67.9382 93.9944 67.1544 90.6438 66.4987 87.3915C65.8281 84.026 65.3987 80.7441 65.294 77.3046C66.5156 80.4829 67.2845 83.7204 67.955 87.0858C68.6256 90.4513 69.055 93.7332 69.1598 97.1727Z" fill="#6D482A"/>
<path d="M192.945 77.2928L69.1745 97.286L69.1449 97.0597L84.5158 94.0125L99.9014 91.0785C110.254 89.2636 120.508 87.5766 130.875 85.8748C141.144 84.301 151.511 82.5992 161.907 81.1237L177.397 78.9819L192.916 77.0665L192.945 77.2928Z" fill="black"/>
<path d="M190.006 60.987C190.814 63.6439 191.396 66.3303 191.864 69.0315C192.333 71.7328 192.802 74.434 192.931 77.1797C192.123 74.5229 191.654 71.8216 191.185 69.1204C190.717 66.4191 190.248 63.7179 190.006 60.987Z" fill="#6D482A"/>
<path d="M237.418 260.594C235.496 253.823 233.914 247.009 232.106 240.224L227.344 219.668C224.278 205.911 221.551 192.109 218.726 178.436C216.226 164.605 213.386 150.819 211.112 136.958L207.807 116.096C206.775 109.094 205.759 102.206 204.954 95.1743L205.18 95.1447L221.639 177.825L237.758 260.549L237.418 260.594Z" fill="#627682"/>
<path d="M232.211 270.944C232.62 270.545 233.156 270.245 233.564 269.846C233.776 269.703 234.1 269.546 234.312 269.403C234.523 269.26 234.72 269.004 234.818 268.876C235.537 268.207 236.142 267.552 236.491 266.701C236.968 265.948 237.075 265.013 237.183 264.078C237.163 263.044 237.227 261.77 237.531 260.579L237.644 260.564L238.315 263.93C238.463 265.061 238.272 266.237 237.839 267.33C237.293 268.437 236.492 269.348 235.419 269.949C234.445 270.421 233.328 270.683 232.241 271.17L232.211 270.944Z" fill="#2F2F3F"/>
<path d="M112.017 314.757C116.775 312.407 121.675 310.27 126.575 308.132L141.305 301.946C151.248 297.883 161.25 294.272 171.223 290.435C181.24 286.937 191.242 283.326 201.402 280.04L216.664 275.28C221.879 273.792 226.966 272.206 232.211 270.944L232.241 271.17L172.174 293.303L112.047 314.983L112.017 314.757Z" fill="#404F59"/>
<path d="M100.933 307.459C102.243 308.669 103.001 310.066 103.631 311.365C104.075 312.112 104.262 312.663 104.503 312.747C104.646 312.959 104.902 313.155 105.158 313.352C105.67 313.745 106.436 314.029 107.456 314.202C107.697 314.286 108.037 314.241 108.278 314.325L109.424 314.29C110.246 314.413 111.053 314.422 112.018 314.757L112.047 314.983C110.62 315.515 109.435 316.13 107.88 316.564C106.424 316.87 104.78 316.624 103.515 315.754C102.137 314.898 101.462 313.26 101.398 311.887L100.594 307.503L100.933 307.459Z" fill="#2F2F3F"/>
<path d="M64.322 120.021C66.7017 127.652 68.5156 135.357 70.669 143.018L76.3667 166.329C80.1077 181.725 83.1992 197.435 86.3892 213.017C89.3528 228.629 92.3163 244.242 94.6157 260.056L98.1632 283.649C99.0865 291.585 100.236 299.492 100.933 307.459L100.481 307.518L81.892 213.836L63.8693 120.08L64.322 120.021Z" fill="#ACECC8"/>
<path d="M70.4776 107.245C69.2676 108.554 67.5162 109.244 67.0392 109.997C66.2981 110.785 65.8211 111.538 65.6082 112.256C65.4114 112.512 65.3427 112.866 65.3871 113.206C65.1904 113.462 65.4516 114.579 65.2993 115.174C65.1671 116.803 64.9069 118.333 64.2089 120.036L63.8694 120.081L62.9524 115.711C62.6467 114.255 62.1983 112.587 62.8128 111.125C63.4273 109.664 64.652 108.468 66.064 107.822C67.476 107.177 68.9768 107.211 70.4332 106.905L70.4776 107.245Z" fill="#2F2F3F"/>
<path d="M117.165 291.637L84.4344 124.181L85.1134 124.092L193.797 102.275L194.103 103.731L86.1964 125.332L118.621 291.332L117.165 291.637Z" fill="black"/>
<path d="M194.127 103.037L202.104 141.13L209.628 179.281L217.265 217.418C219.844 230.088 222.211 242.9 224.563 255.6L224.711 256.731L223.821 256.963L170.975 274.467C162.144 277.349 153.327 280.345 144.481 283.114L117.957 291.534L117.942 291.421L223.319 255.762L223.22 255.89L193.901 103.067L194.127 103.037Z" fill="#ACECC8"/>
<path d="M54.5904 25.4109C55.9981 26.4929 56.6877 28.2444 57.1361 29.9123C57.7126 31.6786 57.9347 33.3761 57.6058 35.2609L57.5222 35.502L57.2959 35.5316C54.014 35.961 50.7765 36.73 47.5686 37.7252C50.5745 36.0657 53.8119 35.2968 57.1922 34.7394L56.8971 35.1234C57.2557 33.465 57.0335 31.7674 56.5851 30.0995C56.4011 29.2795 56.1793 28.4644 55.9198 27.6542C55.575 26.7785 55.245 26.0159 54.5904 25.4109Z" fill="#9CAFBA"/>
<path d="M59.0485 99.0712C62.1971 97.6232 65.6906 97.051 69.1152 96.8331L69.3416 96.8035L69.4844 97.0151C70.5928 100.208 71.165 103.702 70.4479 107.018C70.9387 103.731 70.1401 100.267 68.835 97.3303L69.0909 97.527C65.7646 97.6169 62.3399 97.8348 59.0485 99.0712Z" fill="#2F2F3F"/>
<path d="M180.904 14.2937C182.263 16.7633 183.101 19.6465 183.358 22.4905L182.974 22.1954C185.773 21.5989 188.662 21.6814 191.329 22.7137C189.922 22.5141 188.529 22.4277 187.151 22.4545C185.779 22.5191 184.406 22.5836 183.063 22.8744L182.723 22.9189L182.679 22.5794C182.422 19.7353 181.727 17.0637 180.904 14.2937Z" fill="#9CAFBA"/>
<path d="M201.856 75.8966C198.884 76.0553 195.858 76.6814 193.088 77.5043L193.383 77.1204C193.768 80.0628 193.965 83.0298 193.972 86.0216C193.701 83.0644 193.316 80.122 192.591 77.224L192.547 76.8845L192.886 76.8401C195.799 76.2288 198.855 75.829 201.856 75.8966Z" fill="#2F2F3F"/>
<path d="M65.3922 77.1769C70.2828 75.8464 75.587 75.0372 80.7335 73.9034L96.1488 71.1958C106.501 69.3808 116.913 68.0185 127.196 66.5579C137.637 65.4219 148.034 63.9465 158.505 63.0369L174.098 61.6873C179.363 61.4588 184.598 61.004 189.878 60.8887L189.923 61.2282L127.581 69.5003L96.4449 73.4592C86.0334 74.8214 75.8482 76.1541 65.1955 77.4329L65.3922 77.1769Z" fill="black"/>
<path d="M65.3923 77.1768L189.893 61.0018L189.908 61.115L174.379 63.8374L158.92 66.2055C148.523 67.681 138.111 69.0433 127.715 70.5187C117.401 71.753 106.99 73.1153 96.5487 74.2513L81.0001 75.9404L65.2939 77.3048L65.3923 77.1768Z" fill="black"/>
<path d="M47.1317 28.2286L36.1987 30.0044L36.479 29.5073C41.8223 52.7503 46.7278 76.1657 51.7316 99.4531L65.9657 169.532L79.5356 239.813L86.0942 274.984C88.2001 286.679 90.2075 298.503 92.2002 310.213L91.8162 309.918L100.692 307.375L100.722 307.602L91.9886 310.356L91.7771 310.499L91.7475 310.272L36.0411 29.6797L36.0115 29.4534L36.1247 29.4386L47.1169 28.1154L47.1317 28.2286Z" fill="#ACECC8"/>
<path d="M36.2674 29.65C26.3974 43.9485 16.7834 58.4436 6.67228 72.6585L6.96207 71.3545C10.5021 88.7328 14.2684 106.081 17.5821 123.489L27.7495 175.684L37.351 227.952C40.5516 245.375 43.4126 262.842 46.3867 280.294L45.658 279.123C53.4543 284.165 61.19 289.331 68.8651 294.619L91.959 310.129L91.8755 310.37L44.7188 280.742L44.5908 280.644L5.16617 71.7046L5.15136 71.5914L5.26453 71.5766L36.0263 29.5664L36.2674 29.65Z" fill="black"/>
<path d="M118.936 82.6022C117.012 82.854 115.137 81.7181 114.772 79.809C114.279 77.8016 115.528 75.9115 117.649 75.4038L120.719 75.1172L120.695 75.811L117.738 76.0829C116.183 76.5165 115.116 78.0374 115.436 79.607C115.87 81.1617 117.504 82.2141 119.059 81.7804L121.912 80.7164L122.114 81.3806L119.276 82.5578C119.2 82.5677 119.087 82.5825 118.936 82.6022Z" fill="#6D482A"/>
<path d="M146.401 77.8576C144.477 78.1093 142.828 76.9438 142.38 75.2758C142.262 74.3705 142.369 73.4355 142.846 72.6825C143.422 71.8014 144.155 71.2451 145.173 71.1118L148.017 70.8548L148.106 71.5338L145.262 71.7909C144.598 71.9929 143.963 72.4212 143.471 73.0611C143.093 73.6862 142.955 74.3948 143.157 75.059C143.463 76.5154 144.969 77.4694 146.524 77.0358L149.151 76.0014L149.368 76.7787L146.741 77.8131C146.59 77.8329 146.477 77.8477 146.401 77.8576Z" fill="#6D482A"/>
<path d="M128.172 81.0486C126.248 81.3003 124.486 80.1496 124.022 78.3685C123.776 77.3648 123.997 76.415 124.474 75.6619C125.049 74.7809 125.895 74.2098 126.899 73.9633L129.856 73.6915L129.945 74.3705L126.988 74.6424C126.211 74.8592 125.591 75.4007 125.099 76.0406C124.72 76.6657 124.583 77.3743 124.8 78.1517C125.12 79.7212 126.739 80.6604 128.294 80.2268L131.035 79.1776L131.365 79.9401L128.511 81.0041C128.436 81.014 128.322 81.0288 128.172 81.0486Z" fill="#6D482A"/>
<path d="M154.972 76.5059C153.162 76.7428 151.513 75.5773 151.064 73.9094C150.714 72.1135 151.865 70.3514 153.759 69.8733L156.49 69.6311L156.594 70.4233L153.863 70.6655C152.407 70.9712 151.551 72.3493 151.857 73.8057C152.147 75.1489 153.639 75.9898 155.095 75.6841L157.609 74.6645L157.826 75.4419L155.297 76.3483C155.156 76.4435 155.048 76.496 154.972 76.5059Z" fill="#6D482A"/>
<path d="M137.407 79.4949C135.596 79.7318 133.834 78.5811 133.371 76.8C133.006 74.8909 134.142 73.0157 136.149 72.5228L139.107 72.251L139.21 73.0432L136.253 73.315C134.797 73.6207 133.729 75.1416 134.163 76.6964C134.469 78.1527 135.975 79.1067 137.658 78.7715L140.285 77.7371L140.487 78.4013L137.86 79.4357C137.709 79.4554 137.558 79.4752 137.407 79.4949Z" fill="#6D482A"/>
<path d="M163.303 75.0707C162.51 75.1743 161.689 75.0516 161.063 74.673C160.31 74.196 159.754 73.463 159.522 72.5725C159.059 70.7914 160.308 68.9014 162.104 68.5513L164.948 68.2943L164.924 68.9881L162.193 69.2303C160.865 69.6343 159.896 71.0273 160.187 72.3705C160.389 73.0347 160.817 73.6693 161.442 74.0479C162.052 74.3134 162.761 74.4509 163.44 74.362L165.954 73.3424L166.269 73.9918L163.642 75.0262C163.567 75.0361 163.453 75.0509 163.303 75.0707Z" fill="#6D482A"/>
<path d="M177.94 72.5797C178.044 73.3719 177.582 74.2381 176.79 74.3418C176.012 74.5586 175.244 73.9685 175.126 73.0631C174.909 72.2857 175.485 71.4047 176.277 71.301C177.054 71.0842 177.709 71.6892 177.94 72.5797Z" fill="black"/>
<path d="M183.003 71.6872C183.107 72.4794 182.645 73.3456 181.853 73.4492C181.174 73.5381 180.421 73.0611 180.302 72.1557C180.085 71.3783 180.562 70.6253 181.34 70.4085C182.132 70.3048 182.787 70.9098 183.003 71.6872Z" fill="black"/>
<path fill-rule="evenodd" clip-rule="evenodd" d="M78.6394 91.3282L76.4543 78.1466L83.9086 77.0562L85.9658 90.1393L78.6394 91.3282ZM77.2221 78.7368L79.2148 90.4471L85.0848 89.564L83.2053 77.8388L77.2221 78.7368Z" fill="#6D482A"/>
<path fill-rule="evenodd" clip-rule="evenodd" d="M88.4407 89.7003L86.2851 76.7451L93.4983 75.5711L95.6539 88.5263L88.4407 89.7003ZM87.1661 77.3205L89.0308 88.9325L94.7728 87.951L92.923 76.4522L87.1661 77.3205Z" fill="#6D482A"/>
<path d="M70.4479 107.018C71.8853 108.327 72.5897 110.191 73.1661 111.958C73.4355 112.843 73.5966 113.781 73.6495 114.772C73.7679 115.677 73.9012 116.696 73.567 117.661L73.5966 117.887L73.2571 117.931C70.2015 118.331 67.0772 119.085 64.0957 120.051C66.89 118.534 69.9995 117.667 73.1683 117.252L72.8584 117.523C73.2021 115.751 72.9652 113.941 72.5019 112.16C72.308 111.264 72.0764 110.374 71.807 109.488C71.4622 108.612 71.1174 107.737 70.4479 107.018Z" fill="#9CAFBA"/>
<path d="M73.3946 117.223C75.524 118.249 77.6255 119.355 79.6993 120.542C81.7025 121.776 83.6073 123.138 85.3154 124.756C83.6221 123.251 81.5057 122.032 79.5173 120.911C77.3781 119.809 75.2536 118.821 73.1439 117.946L73.3946 117.223Z" fill="#9CAFBA"/>
<path d="M194.893 86.0161C195.589 87.2296 196.143 88.5383 196.557 89.9421C196.976 91.3837 197.267 92.7269 197.46 94.1981L196.962 93.9178C199.452 93.5921 201.873 93.6206 204.255 94.2298C201.834 94.2013 199.413 94.1727 197.164 94.582L196.712 94.6413L196.667 94.3018C196.41 91.4577 195.715 88.7861 194.893 86.0161Z" fill="#9CAFBA"/>
<path d="M197.474 94.3113C196.6 97.3034 195.612 100.31 194.014 103.052C195.371 100.227 196.117 97.1363 196.652 94.1886L197.474 94.3113Z" fill="#9CAFBA"/>
<path d="M100.633 306.922C103.781 305.475 107.275 304.902 110.7 304.684L110.926 304.655L111.069 304.866C112.192 308.173 112.749 311.553 112.047 314.983C112.41 311.597 111.739 308.232 110.306 305.196L110.675 305.378C107.349 305.468 103.939 305.799 100.633 306.922Z" fill="#9CAFBA"/>
<path d="M110.375 304.842C113.409 300.761 116.158 296.258 117.942 291.42C116.399 296.341 113.892 300.929 111 305.221L110.375 304.842Z" fill="#9CAFBA"/>
<path d="M237.758 260.549C235.184 261.116 232.513 261.811 230.097 262.703L230.264 262.22C230.839 263.68 231.295 265.116 231.634 266.53C231.982 268.019 232.18 269.528 232.226 271.057C231.502 268.159 230.664 265.276 229.615 262.535L229.442 262.098L229.782 262.053C232.424 261.132 235.11 260.55 237.758 260.549Z" fill="#9CAFBA"/>
<path d="M229.63 262.649C228.773 261.38 227.808 260.163 226.735 258.999C225.667 257.872 224.712 256.731 223.333 255.875C224.697 256.618 225.878 257.73 227.045 258.728C228.184 259.807 229.252 260.933 230.249 262.107L229.63 262.649Z" fill="#9CAFBA"/>
<path d="M261.807 144.368C261.993 142.271 261.486 140.151 261.121 138.242C260.771 136.446 260.578 134.975 261.109 133.754L263.224 129.679L260.866 128.376L247.561 153.368C246.714 151.292 244.976 149.448 242.633 148.258C238.046 145.75 232.757 146.672 230.81 150.265C228.976 153.843 231.113 158.743 235.7 161.251C240.4 163.744 245.69 162.822 247.509 159.131C247.607 159.003 258.882 137.844 258.882 137.844C258.997 138.136 259.074 138.433 259.113 138.735C259.705 140.614 260.409 142.479 260.42 144.319C260.558 146.258 260.116 148.157 259.207 150.003C258.282 151.735 257.117 153.384 255.808 154.822C257.245 153.483 258.666 152.03 259.817 150.268C260.854 148.521 261.636 146.577 261.807 144.368Z" fill="#A8588D"/>
<path d="M244.296 72.9913C243.704 71.1118 242.577 69.5328 241.577 68.052C240.721 66.7829 240.09 65.4841 240.055 64.3376L240.556 60.2434L238.105 59.9885L235.532 85.1882C234.08 83.7667 232.106 82.7588 229.67 82.617C225.109 82.0628 220.947 84.5642 220.628 88.2893C220.182 91.916 223.726 95.2507 228.386 95.677C232.948 96.2312 237.095 93.6166 237.428 90.0047C237.413 89.8916 239.683 68.5301 239.683 68.5301C239.864 68.7367 240.044 68.9433 240.225 69.1499C241.323 70.5026 242.42 71.8554 243.194 73.3657C243.853 74.8908 244.204 76.6867 243.973 78.4435C243.856 80.1855 243.399 81.9718 242.814 83.6598C243.64 82.0554 244.338 80.3526 244.554 78.4826C244.897 76.7111 244.872 74.7576 244.296 72.9913Z" fill="#8753A4"/>
<path d="M107.591 308.199C106.686 308.317 105.997 309.213 106.116 310.119C106.249 311.137 107.145 311.826 108.05 311.707C109.069 311.574 109.644 310.693 109.511 309.674C109.392 308.769 108.61 308.066 107.591 308.199Z" fill="#8753A4"/>
<path d="M233.965 263.233C233.173 263.336 232.681 263.976 232.785 264.768C232.873 265.447 233.513 265.939 234.306 265.836C234.985 265.747 235.59 265.092 235.501 264.413C235.397 263.621 234.644 263.144 233.965 263.233Z" fill="#8753A4"/>
<path d="M199.426 88.9915C198.634 89.0952 198.142 89.735 198.245 90.5272C198.334 91.2062 198.974 91.698 199.766 91.5944C200.445 91.5055 201.05 90.8508 200.961 90.1718C200.858 89.3797 200.105 88.9027 199.426 88.9915Z" fill="#8753A4"/>
<path d="M198.182 79.4853C198.078 78.6931 197.438 78.2013 196.646 78.305C195.967 78.3938 195.362 79.0485 195.466 79.8407C195.555 80.5197 196.322 81.1099 197.002 81.021C197.794 80.9174 198.271 80.1643 198.182 79.4853Z" fill="#8753A4"/>
<path d="M185.89 17.2095C185.211 17.2984 184.606 17.9531 184.709 18.7452C184.798 19.4242 185.551 19.9013 186.23 19.8124C187.022 19.7088 187.514 19.0689 187.425 18.3899C187.322 17.5977 186.682 17.1059 185.89 17.2095Z" fill="#8753A4"/>
<path d="M69.018 111.925C67.9995 112.058 67.4093 112.826 67.5426 113.845C67.6611 114.75 68.4437 115.453 69.4622 115.32C70.3676 115.201 71.0561 114.306 70.9377 113.4C70.8044 112.382 69.9234 111.806 69.018 111.925Z" fill="#8753A4"/>
<path d="M68.2458 100.746C68.1273 99.8404 67.2315 99.1519 66.3262 99.2703C65.4208 99.3888 64.7323 100.285 64.8507 101.19C64.9692 102.095 65.865 102.784 66.7704 102.665C67.6757 102.547 68.3643 101.651 68.2458 100.746Z" fill="#8753A4"/>
<path d="M53.0324 30.219C52.0138 30.3523 51.4385 31.2333 51.5569 32.1387C51.6902 33.1572 52.4729 33.8606 53.4914 33.7273C54.3967 33.6088 55.0853 32.713 54.952 31.6945C54.8335 30.7891 53.9377 30.1006 53.0324 30.219Z" fill="#8753A4"/>
<path d="M165.767 257.537C158.495 258.259 151.025 256.589 144.592 253.171C138.031 249.656 132.425 244.634 127.777 239.026C118.566 227.57 112.808 213.474 110.573 199.033C108.55 184.449 109.907 169.308 115.605 155.67C118.525 148.958 122.523 142.564 127.845 137.494C133.295 132.522 140.099 129.099 147.327 128.038L147.342 128.151C140.143 129.438 133.595 133.058 128.386 138.113C123.177 143.169 119.278 149.435 116.584 156.118C111.083 169.499 109.938 184.498 112.03 198.728C114.137 213.07 119.639 226.969 128.609 238.342C133.143 243.964 138.636 249.001 144.956 252.433C151.177 255.993 158.45 257.919 165.752 257.424L165.767 257.537Z" fill="#9CAEBA"/>
<path d="M153.396 132.193C159.581 131.96 165.806 133.793 171.274 136.876C176.757 140.072 181.468 144.405 185.446 149.294C193.288 159.088 198.199 171.108 200.605 183.339C202.8 195.714 202.648 208.626 199.036 220.609C197.188 226.721 194.602 232.469 190.894 237.559C187.186 242.648 182.454 246.951 176.806 249.532L176.678 249.433C182.154 246.415 186.531 242.043 189.885 236.885C193.367 231.825 195.726 226.107 197.377 220.25C200.537 208.326 200.62 195.769 198.357 183.749C196.206 171.714 191.453 160.019 183.965 150.294C180.342 145.473 175.857 141.11 170.601 137.885C165.457 134.644 159.542 132.54 153.425 132.42L153.396 132.193Z" fill="#9CAEBA"/>
<path d="M165.062 253.025C158.454 253.545 151.648 251.673 145.909 248.28C140.17 244.887 135.287 240.116 131.151 234.901C123.077 224.217 118.176 211.391 116.217 198.18C114.258 184.969 115.227 171.259 120.039 158.774C122.453 152.587 125.929 146.607 130.602 141.852C135.275 137.097 141.37 133.537 147.904 132.452L147.949 132.791C141.602 134.427 135.861 138.056 131.67 142.979C127.465 147.788 124.299 153.497 122.225 159.639C117.934 171.711 117.034 185.066 119.16 197.795C120.833 210.583 125.562 222.971 133.04 233.503C136.723 238.777 141.365 243.464 146.764 246.902C152.08 250.58 158.463 252.738 165.145 252.784L165.062 253.025Z" fill="black"/>
<path d="M148.233 179.832C151.8 177.179 157.395 177.713 161.332 180.536C165.482 183.216 168.155 187.816 168.777 192.569C169.512 197.307 168.368 202.636 165.048 206.294C162.097 210.133 156.602 212.118 152.458 210.358L152.482 209.665C156.103 209.191 159.148 206.951 161.042 203.825C162.836 200.828 163.48 196.945 162.907 193.452C162.335 189.958 160.73 186.485 158.111 184.065C155.492 181.645 151.958 180.151 148.209 180.526L148.233 179.832Z" fill="#0D101B"/>
<path d="M208.112 179.134L204.809 200.516C203.072 198.671 200.601 197.383 197.653 196.848C191.901 195.989 186.637 198.865 185.955 203.328C185.272 207.792 189.304 212.214 195.072 213.186C200.824 214.044 206.088 211.169 206.884 206.69L211.173 179.655L208.112 179.134Z" fill="white"/>
<path d="M54.6051 25.5241C53.3804 26.7204 51.5009 27.3116 50.7828 27.9811C49.9663 28.7786 49.3613 29.4332 49.209 30.0287C49.0123 30.2847 48.9287 30.5258 48.86 30.8801L48.7764 31.1213L48.8504 31.6871C48.8244 32.0742 48.7983 32.4613 48.7722 32.8484C48.7383 34.3492 48.493 35.9928 47.6817 37.7105L47.3422 37.7549L46.4104 33.2725C46.3068 32.4804 46.1048 31.8162 46.0011 31.024C46.0106 30.217 46.1333 29.3952 46.4971 28.6569C47.2248 27.1804 48.5924 26.1958 50.0339 25.7769C51.5887 25.3433 53.0895 25.3771 54.5607 25.1846L54.6051 25.5241Z" fill="#2F2F3F"/>
<path d="M65.1807 77.3195L57.025 35.2217L56.9954 34.9954L57.2217 34.9657L182.988 22.3084L183.215 22.2788L183.244 22.5052L190.232 60.9572L189.893 61.0017C188.272 54.7679 186.862 48.3913 185.452 42.0147C184.683 38.7772 183.929 35.6529 183.273 32.4006L181.335 22.8701L183.24 24.2323C172.715 25.6094 162.304 26.9717 151.863 28.1077L120.426 31.5303L88.9154 34.3871L73.224 35.8647L57.3751 37.0176L59.0472 34.842C60.1916 41.8289 61.464 48.9141 62.3969 56.0437C63.4281 63.0454 64.5873 70.1454 65.407 77.2899L65.1807 77.3195Z" fill="black"/>
<path d="M204.954 95.1744C204.21 93.8904 203.693 92.5768 203.176 91.2632C202.846 90.5007 202.885 89.92 202.57 89.2706C202.398 88.8327 202.097 88.2965 201.713 88.0014C201.142 87.1553 200.148 86.5947 199.07 86.2753C198.475 86.123 197.796 86.2119 197.102 86.1875C196.393 86.05 195.601 86.1537 194.878 85.903L194.863 85.7899C196.334 85.5974 197.663 85.1933 199.035 85.1288C200.536 85.1627 201.899 85.9051 202.855 87.0463C203.908 88.0596 204.115 89.6439 204.406 90.9872L205.18 95.1448L204.954 95.1744Z" fill="#2F2F3F"/>
<path d="M159.98 193.95C160.941 198.659 158.66 203.216 154.743 204.074C150.714 204.946 146.732 201.784 145.657 197.09C144.696 192.381 147.09 187.809 151.007 186.951C154.923 186.094 158.905 189.256 159.98 193.95Z" fill="#3B5168"/>
<path d="M69.9361 131.258C73.1842 144.646 76.1076 158.191 78.9031 171.638C81.8116 185.07 84.3955 198.66 87.1909 212.107C89.6617 225.712 92.2456 239.301 94.7015 252.793L98.1738 273.173C99.3034 280.046 100.418 286.807 101.42 293.582C99.7392 286.896 98.2849 280.18 96.7174 273.478L92.3397 253.217C89.5443 239.77 86.9752 226.293 84.165 212.733C81.6943 199.129 79.012 185.667 76.6545 172.047C74.3117 158.541 71.9542 144.922 69.9361 131.258Z" fill="#ACECC8"/>
<path d="M51.226 41.045C52.4825 45.3698 53.4979 49.611 54.528 53.9653C55.5434 58.2065 56.4604 62.5757 57.3774 66.9449C58.1664 71.2157 58.9702 75.5997 59.5477 80.0132C60.2384 84.412 60.8159 88.8256 61.2802 93.254C59.9105 88.9441 58.8952 84.7029 57.865 80.3485C56.8348 75.9942 55.9326 71.7382 55.1288 67.3542C54.325 62.9702 53.5211 58.5862 52.8453 54.3006C52.1546 49.9018 51.5771 45.4883 51.226 41.045Z" fill="#B7CDD8"/>
<path d="M74.5866 107.858C80.6776 106.025 86.7147 104.66 92.8798 103.393C99.0596 102.239 105.186 101.552 111.395 100.625C123.748 98.8549 136.145 97.1178 148.583 95.4136L148.628 95.7531C136.373 98.2774 124.103 100.689 111.819 102.986C105.639 104.14 99.6022 105.506 93.3927 106.433C87.1684 107.248 80.9293 107.949 74.631 108.198L74.5866 107.858Z" fill="#ACECC8"/>
<path d="M56.1556 26.8174C60.9775 25.8412 65.8585 25.3177 70.7248 24.6809C75.6059 24.1574 80.5314 23.9733 85.4421 23.6761C95.2635 23.0817 105.09 22.525 114.921 22.006L114.951 22.2323C105.198 23.3549 95.4411 24.4397 85.679 25.4868C80.7979 26.0104 75.8185 26.6619 70.9078 26.9591C65.9823 27.1432 61.0568 27.3272 56.1852 27.0438L56.1556 26.8174Z" fill="#B7CDD8"/>
<path fill-rule="evenodd" clip-rule="evenodd" d="M121.79 81.5383C120.092 81.7604 118.458 80.7081 118.123 79.0254C117.906 78.248 118.014 77.313 118.506 76.6731C118.968 75.8069 119.715 75.3637 120.606 75.1321C122.387 74.6689 124.262 75.8048 124.598 77.4875C124.829 78.3781 124.707 79.1998 124.23 79.9529C123.753 80.706 123.02 81.2623 122.114 81.3807C121.973 81.4759 121.865 81.5285 121.79 81.5383ZM121.034 75.7667C120.959 75.7766 120.883 75.7865 120.808 75.7963C120.144 75.9983 119.509 76.4267 119.131 77.0518C118.737 77.5637 118.713 78.2575 118.787 78.8233C119.078 80.1666 120.569 81.0074 121.912 80.7165C122.69 80.4997 123.211 80.0862 123.59 79.4611C123.983 78.9492 124.022 78.3685 123.933 77.6895C123.657 76.4595 122.392 75.589 121.034 75.7667Z" fill="black"/>
<path fill-rule="evenodd" clip-rule="evenodd" d="M149.028 76.8231C147.331 77.0452 145.938 76.0764 145.504 74.5217C145.169 72.8389 146.221 71.2049 147.904 70.8696C149.685 70.4063 151.319 71.4587 151.768 73.1266C152.088 74.6962 151.036 76.3302 149.368 76.7787C149.217 76.7984 149.104 76.8132 149.028 76.8231ZM148.332 71.5042C148.257 71.5141 148.182 71.5239 148.106 71.5338C146.763 71.8247 146.006 73.0748 146.282 74.3049C146.558 75.5349 147.823 76.4054 149.151 76.0013C150.494 75.7105 151.252 74.4603 150.976 73.2303C150.714 72.1134 149.577 71.3413 148.332 71.5042Z" fill="black"/>
<path fill-rule="evenodd" clip-rule="evenodd" d="M130.912 79.9993C129.214 80.2214 127.693 79.1542 127.373 77.5847C126.91 75.8036 128.06 74.0415 129.856 73.6914C131.637 73.2282 133.399 74.3789 133.848 76.0468C133.951 76.839 133.829 77.6608 133.352 78.4139C132.875 79.1669 132.142 79.7232 131.251 79.9549C131.176 79.9647 131.063 79.9795 130.912 79.9993ZM130.285 74.326C130.209 74.3359 130.096 74.3507 129.945 74.3705C128.617 74.7745 127.746 76.0394 128.037 77.3827C128.328 78.7259 129.804 79.4535 131.148 79.1627C131.812 78.9607 132.348 78.6603 132.727 78.0352C133.105 77.4101 133.258 76.8147 133.07 76.2636C132.794 75.0336 131.529 74.1631 130.285 74.326Z" fill="black"/>
<path fill-rule="evenodd" clip-rule="evenodd" d="M157.486 75.4862C155.902 75.6935 154.509 74.7247 154.09 73.2831C153.755 71.6004 154.822 70.0795 156.49 69.6311C158.173 69.2958 159.792 70.235 160.113 71.8045C160.561 73.4725 159.494 74.9934 157.826 75.4418C157.75 75.4517 157.637 75.4665 157.486 75.4862ZM156.933 70.3788C156.782 70.3986 156.669 70.4134 156.594 70.4232C155.364 70.6993 154.592 71.8363 154.868 73.0663C155.144 74.2964 156.394 75.0537 157.609 74.6644C158.839 74.3884 159.724 73.2366 159.448 72.0065C159.187 70.8897 158.065 70.2307 156.933 70.3788Z" fill="black"/>
<path fill-rule="evenodd" clip-rule="evenodd" d="M140.147 78.4457C138.45 78.6678 136.944 77.7138 136.623 76.1442C136.406 75.3669 136.529 74.5451 137.006 73.792C137.483 73.039 138.216 72.4826 139.107 72.251C140.902 71.9009 142.537 72.9533 142.985 74.6212C143.32 76.3039 142.268 77.938 140.487 78.4013C140.411 78.4111 140.298 78.4259 140.147 78.4457ZM139.55 72.9988C139.399 73.0185 139.286 73.0333 139.21 73.0432C138.546 73.2452 138.01 73.5456 137.631 74.1707C137.351 74.6678 137.213 75.3764 137.287 75.9422C137.677 77.1575 138.942 78.0279 140.27 77.6239C141.613 77.333 142.484 76.0681 142.208 74.838C141.932 73.608 140.795 72.8359 139.55 72.9988Z" fill="black"/>
<path fill-rule="evenodd" clip-rule="evenodd" d="M165.831 74.1641C164.36 74.3566 162.854 73.4026 162.534 71.833C162.317 71.0557 162.454 70.347 162.931 69.594C163.423 68.9541 164.043 68.4126 164.835 68.3089C166.503 67.8605 168.137 68.9128 168.571 70.4676C168.674 71.2598 168.552 72.0816 168.06 72.7215C167.681 73.3465 166.948 73.9029 166.156 74.0065C166.091 74.0918 165.982 74.1444 165.831 74.1641ZM165.263 68.9435C165.188 68.9534 165.113 68.9633 165.037 68.9731C164.373 69.1752 163.837 69.4755 163.556 69.9726C163.276 70.4697 163.139 71.1784 163.213 71.7442C163.474 72.8611 164.724 73.6184 166.067 73.3275C166.618 73.1403 167.155 72.8399 167.435 72.3428C167.828 71.8309 167.981 71.2355 167.793 70.6844C167.532 69.5675 166.395 68.7954 165.263 68.9435Z" fill="black"/>
</g>
<defs>
<linearGradient id="paint0_linear_23_23" x1="5.37376" y1="71.6809" x2="61.7524" y2="158.631" gradientUnits="userSpaceOnUse">
<stop stop-color="#582E53"/>
<stop offset="1" stop-color="#8753A4"/>
</linearGradient>
</defs>
</svg>
