<svg width="51" height="51" viewBox="0 0 51 51" fill="none" xmlns="http://www.w3.org/2000/svg">
<path d="M3.29004 15.6558C2.87564 15.6558 2.47821 15.8204 2.18518 16.1134C1.89216 16.4064 1.72754 16.8039 1.72754 17.2183V32.8433C1.72754 33.2577 1.89216 33.6551 2.18518 33.9481C2.47821 34.2411 2.87564 34.4058 3.29004 34.4058C3.70444 34.4058 4.10187 34.2411 4.39489 33.9481C4.68792 33.6551 4.85254 33.2577 4.85254 32.8433V17.2183C4.85254 16.8039 4.68792 16.4064 4.39489 16.1134C4.10187 15.8204 3.70444 15.6558 3.29004 15.6558Z" fill="black"/>
<path d="M3.29004 15.6558C2.87564 15.6558 2.47821 15.8204 2.18518 16.1134C1.89216 16.4064 1.72754 16.8039 1.72754 17.2183V32.8433C1.72754 33.2577 1.89216 33.6551 2.18518 33.9481C2.47821 34.2411 2.87564 34.4058 3.29004 34.4058C3.70444 34.4058 4.10187 34.2411 4.39489 33.9481C4.68792 33.6551 4.85254 33.2577 4.85254 32.8433V17.2183C4.85254 16.8039 4.68792 16.4064 4.39489 16.1134C4.10187 15.8204 3.70444 15.6558 3.29004 15.6558Z" fill="#9C6CC1"/>
<path d="M9.54004 7.84326C9.12564 7.84326 8.72821 8.00788 8.43519 8.30091C8.14216 8.59393 7.97754 8.99136 7.97754 9.40576V40.6558C7.97754 41.0702 8.14216 41.4676 8.43519 41.7606C8.72821 42.0536 9.12564 42.2183 9.54004 42.2183C9.95444 42.2183 10.3519 42.0536 10.6449 41.7606C10.9379 41.4676 11.1025 41.0702 11.1025 40.6558V9.40576C11.1025 8.99136 10.9379 8.59393 10.6449 8.30091C10.3519 8.00788 9.95444 7.84326 9.54004 7.84326Z" fill="black"/>
<path d="M9.54004 7.84326C9.12564 7.84326 8.72821 8.00788 8.43519 8.30091C8.14216 8.59393 7.97754 8.99136 7.97754 9.40576V40.6558C7.97754 41.0702 8.14216 41.4676 8.43519 41.7606C8.72821 42.0536 9.12564 42.2183 9.54004 42.2183C9.95444 42.2183 10.3519 42.0536 10.6449 41.7606C10.9379 41.4676 11.1025 41.0702 11.1025 40.6558V9.40576C11.1025 8.99136 10.9379 8.59393 10.6449 8.30091C10.3519 8.00788 9.95444 7.84326 9.54004 7.84326Z" fill="#9C6CC1"/>
<path d="M28.29 15.6558C27.8756 15.6558 27.4782 15.8204 27.1852 16.1134C26.8922 16.4064 26.7275 16.8039 26.7275 17.2183V32.8433C26.7275 33.2577 26.8922 33.6551 27.1852 33.9481C27.4782 34.2411 27.8756 34.4058 28.29 34.4058C28.7044 34.4058 29.1019 34.2411 29.3949 33.9481C29.6879 33.6551 29.8525 33.2577 29.8525 32.8433V17.2183C29.8525 16.8039 29.6879 16.4064 29.3949 16.1134C29.1019 15.8204 28.7044 15.6558 28.29 15.6558Z" fill="black"/>
<path d="M28.29 15.6558C27.8756 15.6558 27.4782 15.8204 27.1852 16.1134C26.8922 16.4064 26.7275 16.8039 26.7275 17.2183V32.8433C26.7275 33.2577 26.8922 33.6551 27.1852 33.9481C27.4782 34.2411 27.8756 34.4058 28.29 34.4058C28.7044 34.4058 29.1019 34.2411 29.3949 33.9481C29.6879 33.6551 29.8525 33.2577 29.8525 32.8433V17.2183C29.8525 16.8039 29.6879 16.4064 29.3949 16.1134C29.1019 15.8204 28.7044 15.6558 28.29 15.6558Z" fill="#9C6CC1"/>
<path d="M22.04 7.84326C21.6256 7.84326 21.2282 8.00788 20.9352 8.30091C20.6422 8.59393 20.4775 8.99136 20.4775 9.40576V40.6558C20.4775 41.0702 20.6422 41.4676 20.9352 41.7606C21.2282 42.0536 21.6256 42.2183 22.04 42.2183C22.4544 42.2183 22.8519 42.0536 23.1449 41.7606C23.4379 41.4676 23.6025 41.0702 23.6025 40.6558V9.40576C23.6025 8.99136 23.4379 8.59393 23.1449 8.30091C22.8519 8.00788 22.4544 7.84326 22.04 7.84326Z" fill="black"/>
<path d="M22.04 7.84326C21.6256 7.84326 21.2282 8.00788 20.9352 8.30091C20.6422 8.59393 20.4775 8.99136 20.4775 9.40576V40.6558C20.4775 41.0702 20.6422 41.4676 20.9352 41.7606C21.2282 42.0536 21.6256 42.2183 22.04 42.2183C22.4544 42.2183 22.8519 42.0536 23.1449 41.7606C23.4379 41.4676 23.6025 41.0702 23.6025 40.6558V9.40576C23.6025 8.99136 23.4379 8.59393 23.1449 8.30091C22.8519 8.00788 22.4544 7.84326 22.04 7.84326Z" fill="#9C6CC1"/>
<path d="M15.79 1.59326C15.3756 1.59326 14.9782 1.75788 14.6852 2.05091C14.3922 2.34393 14.2275 2.74136 14.2275 3.15576V46.9058C14.2275 47.3202 14.3922 47.7176 14.6852 48.0106C14.9782 48.3036 15.3756 48.4683 15.79 48.4683C16.2044 48.4683 16.6019 48.3036 16.8949 48.0106C17.1879 47.7176 17.3525 47.3202 17.3525 46.9058V3.15576C17.3525 2.74136 17.1879 2.34393 16.8949 2.05091C16.6019 1.75788 16.2044 1.59326 15.79 1.59326Z" fill="black"/>
<path d="M15.79 1.59326C15.3756 1.59326 14.9782 1.75788 14.6852 2.05091C14.3922 2.34393 14.2275 2.74136 14.2275 3.15576V46.9058C14.2275 47.3202 14.3922 47.7176 14.6852 48.0106C14.9782 48.3036 15.3756 48.4683 15.79 48.4683C16.2044 48.4683 16.6019 48.3036 16.8949 48.0106C17.1879 47.7176 17.3525 47.3202 17.3525 46.9058V3.15576C17.3525 2.74136 17.1879 2.34393 16.8949 2.05091C16.6019 1.75788 16.2044 1.59326 15.79 1.59326Z" fill="#9C6CC1"/>
<path d="M47.04 15.6558C46.6256 15.6558 46.2282 15.8204 45.9352 16.1134C45.6422 16.4064 45.4775 16.8039 45.4775 17.2183V32.8433C45.4775 33.2577 45.6422 33.6551 45.9352 33.9481C46.2282 34.2411 46.6256 34.4058 47.04 34.4058C47.4544 34.4058 47.8519 34.2411 48.1449 33.9481C48.4379 33.6551 48.6025 33.2577 48.6025 32.8433V17.2183C48.6025 16.8039 48.4379 16.4064 48.1449 16.1134C47.8519 15.8204 47.4544 15.6558 47.04 15.6558Z" fill="black"/>
<path d="M47.04 15.6558C46.6256 15.6558 46.2282 15.8204 45.9352 16.1134C45.6422 16.4064 45.4775 16.8039 45.4775 17.2183V32.8433C45.4775 33.2577 45.6422 33.6551 45.9352 33.9481C46.2282 34.2411 46.6256 34.4058 47.04 34.4058C47.4544 34.4058 47.8519 34.2411 48.1449 33.9481C48.4379 33.6551 48.6025 33.2577 48.6025 32.8433V17.2183C48.6025 16.8039 48.4379 16.4064 48.1449 16.1134C47.8519 15.8204 47.4544 15.6558 47.04 15.6558Z" fill="#9C6CC1"/>
<path d="M40.79 7.84326C40.3756 7.84326 39.9782 8.00788 39.6852 8.30091C39.3922 8.59393 39.2275 8.99136 39.2275 9.40576V40.6558C39.2275 41.0702 39.3922 41.4676 39.6852 41.7606C39.9782 42.0536 40.3756 42.2183 40.79 42.2183C41.2044 42.2183 41.6019 42.0536 41.8949 41.7606C42.1879 41.4676 42.3525 41.0702 42.3525 40.6558V9.40576C42.3525 8.99136 42.1879 8.59393 41.8949 8.30091C41.6019 8.00788 41.2044 7.84326 40.79 7.84326Z" fill="black"/>
<path d="M40.79 7.84326C40.3756 7.84326 39.9782 8.00788 39.6852 8.30091C39.3922 8.59393 39.2275 8.99136 39.2275 9.40576V40.6558C39.2275 41.0702 39.3922 41.4676 39.6852 41.7606C39.9782 42.0536 40.3756 42.2183 40.79 42.2183C41.2044 42.2183 41.6019 42.0536 41.8949 41.7606C42.1879 41.4676 42.3525 41.0702 42.3525 40.6558V9.40576C42.3525 8.99136 42.1879 8.59393 41.8949 8.30091C41.6019 8.00788 41.2044 7.84326 40.79 7.84326Z" fill="#9C6CC1"/>
<path d="M34.54 1.59326C34.1256 1.59326 33.7282 1.75788 33.4352 2.05091C33.1422 2.34393 32.9775 2.74136 32.9775 3.15576V46.9058C32.9775 47.3202 33.1422 47.7176 33.4352 48.0106C33.7282 48.3036 34.1256 48.4683 34.54 48.4683C34.9544 48.4683 35.3519 48.3036 35.6449 48.0106C35.9379 47.7176 36.1025 47.3202 36.1025 46.9058V3.15576C36.1025 2.74136 35.9379 2.34393 35.6449 2.05091C35.3519 1.75788 34.9544 1.59326 34.54 1.59326Z" fill="black"/>
<path d="M34.54 1.59326C34.1256 1.59326 33.7282 1.75788 33.4352 2.05091C33.1422 2.34393 32.9775 2.74136 32.9775 3.15576V46.9058C32.9775 47.3202 33.1422 47.7176 33.4352 48.0106C33.7282 48.3036 34.1256 48.4683 34.54 48.4683C34.9544 48.4683 35.3519 48.3036 35.6449 48.0106C35.9379 47.7176 36.1025 47.3202 36.1025 46.9058V3.15576C36.1025 2.74136 35.9379 2.34393 35.6449 2.05091C35.3519 1.75788 34.9544 1.59326 34.54 1.59326Z" fill="#9C6CC1"/>
</svg>
